<svg width="86" height="26" viewBox="0 0 86 26" fill="none" xmlns="http://www.w3.org/2000/svg">
<g clip-path="url(#clip0_1_506)">
<path d="M17.5096 0L8.75488 8.66667H17.5096V26L26.2643 17.3517V0H17.5096Z" fill="#EA5614"/>
<path d="M8.75471 26L17.5094 17.3333H8.75471V0L0 8.64833V26H8.75471Z" fill="#2B2C84"/>
<path d="M35.0093 21.6626H39.6043V8.22698H46.6081V21.6626H51.2032V4.32927H35.0093V21.6626ZM79.6537 10.8224H75.7256V8.22698H84.4711V4.32927H71.1306V21.6626C71.1306 21.6626 77.6897 21.6626 79.8668 21.6626C83.3686 21.6626 85.9997 19.9201 85.9997 16.2425C85.9997 12.5649 83.3779 10.8224 79.6537 10.8224ZM79.2183 17.9758H75.7256V14.5091H79.2183C80.3022 14.5091 81.4046 14.931 81.4046 16.2333C81.4046 17.5356 80.3114 17.9666 79.2183 17.9666M62.4593 17.9575C59.3928 17.9575 57.6696 15.7289 57.6696 12.9776C57.6696 10.7674 58.9296 7.9977 62.3759 7.9977C64.5252 7.9977 65.9148 9.29996 66.4058 9.90524L69.2036 7.13562C67.5175 5.14549 64.9884 3.87988 62.1535 3.87988C57.0767 3.87988 53.0745 7.60334 53.0745 12.9776C53.0745 18.0034 57.0767 22.0753 62.1535 22.0753C65.1922 22.0753 67.8881 20.6171 69.5556 18.361L66.7393 15.573C65.85 16.9486 64.3955 17.9483 62.45 17.9483" fill="#2B2C84"/>
</g>
<defs>
<clipPath id="clip0_1_506">
<rect width="86" height="26" fill="white"/>
</clipPath>
</defs>
</svg>
