<svg width="160" height="70" viewBox="0 0 160 70" fill="none" xmlns="http://www.w3.org/2000/svg">
<rect width="160" height="70" rx="2" fill="#EA5614"/>
<path d="M50.3596 20L40.1797 30H50.3596V50L60.5395 40.0212V20H50.3596Z" fill="white"/>
<path d="M40.1799 50L50.3598 40H40.1799V20L30 29.9788V50H40.1799Z" fill="white"/>
<path d="M70.709 44.9951H76.0521V29.4924H84.196V44.9951H89.5391V24.9951H70.709V44.9951ZM122.621 32.4871H118.054V29.4924H128.223V24.9951H112.71V44.9951C112.71 44.9951 120.337 44.9951 122.869 44.9951C126.941 44.9951 130 42.9845 130 38.7411C130 34.4977 126.952 32.4871 122.621 32.4871ZM122.115 40.7411H118.054V36.7411H122.115C123.375 36.7411 124.657 37.2279 124.657 38.7305C124.657 40.2332 123.386 40.7305 122.115 40.7305M102.628 40.72C99.0619 40.72 97.0582 38.1485 97.0582 34.9739C97.0582 32.4237 98.5233 29.2279 102.531 29.2279C105.03 29.2279 106.646 30.7305 107.217 31.4289L110.47 28.2332C108.509 25.9369 105.568 24.4766 102.272 24.4766C96.3688 24.4766 91.7151 28.7729 91.7151 34.9739C91.7151 40.7729 96.3688 45.4713 102.272 45.4713C105.805 45.4713 108.94 43.7887 110.879 41.1856L107.604 37.9686C106.57 39.5559 104.879 40.7094 102.617 40.7094" fill="white"/>
</svg>
