<svg width="226" height="70" viewBox="0 0 226 70" fill="none" xmlns="http://www.w3.org/2000/svg">
<rect width="226" height="69.9999" rx="2" fill="#EA5614"/>
<path d="M34.1017 10L30.8201 13.3301V19.9902C30.8201 21.8305 32.2881 23.3203 34.1017 23.3203H36.5628L39.8444 19.9902H34.1017V10Z" fill="white"/>
<path d="M40.6861 23.3203L43.9677 19.9902V13.3301C43.9677 11.4898 42.4996 10 40.6861 10H38.2249L34.9434 13.3301H40.6861V23.3203Z" fill="white"/>
<path fill-rule="evenodd" clip-rule="evenodd" d="M85.0536 10H75.1873V23.3203H81.772C84.0389 23.3203 85.874 21.458 85.874 19.1577C85.874 16.8573 84.0389 14.9951 81.772 14.9951H78.4904V12.7824H85.0752V10H85.0536ZM78.4688 17.7775V20.5598H81.2107C81.9663 20.5598 82.5708 19.9464 82.5708 19.1796C82.5708 18.4128 81.9663 17.7994 81.2107 17.7994H78.4688V17.7775Z" fill="white"/>
<path d="M48.8916 23.3203V10H60.3988V23.3203H57.1172V13.3301H52.1948V23.3203H48.9132H48.8916Z" fill="white"/>
<path d="M71.2572 18.6538C70.6527 19.4644 69.7028 19.9902 68.6233 19.9902C66.8098 19.9902 65.3418 18.5004 65.3418 16.6601C65.3418 14.8198 66.8098 13.3301 68.6233 13.3301C70.4368 13.3301 70.6527 13.8559 71.2572 14.6665L73.8912 12.6728C72.6821 11.0516 70.7823 10 68.6233 10C64.9963 10 62.0386 12.9795 62.0386 16.6601C62.0386 20.3407 64.9747 23.3203 68.6233 23.3203C72.2719 23.3203 72.6821 22.2687 73.8912 20.6474L71.2572 18.6538Z" fill="white"/>
<path d="M52.1937 28.3374H48.9121V41.6577H60.4193V44.1552H63.7008V38.3276H60.4193V28.3374H57.1377V38.3276H52.2153V28.3374H52.1937Z" fill="white"/>
<path d="M74.9275 28.3374L68.6234 37.1007V28.3374H65.3418V41.6577H68.904L75.2082 32.8943V41.6577H78.4897V28.3374H74.9275Z" fill="white"/>
<path fill-rule="evenodd" clip-rule="evenodd" d="M126.16 28.3374H133.694C135.896 28.3374 137.667 30.1339 137.667 32.3685C137.667 34.6032 137.3 34.2965 136.695 34.9975C137.3 35.6986 137.667 36.6187 137.667 37.6265C137.667 39.8612 135.896 41.6577 133.694 41.6577H126.16V28.3374ZM129.441 33.6173H133.133C133.824 33.6173 134.364 33.0477 134.364 32.3685C134.364 31.6894 133.802 31.1198 133.133 31.1198H129.441V33.6173ZM129.441 36.3997V38.8972H133.133C133.824 38.8972 134.364 38.3276 134.364 37.6484C134.364 36.9693 133.802 36.3997 133.133 36.3997H129.441Z" fill="white"/>
<path fill-rule="evenodd" clip-rule="evenodd" d="M98.2013 41.6577H101.483V38.3276H104.764C107.485 38.3276 109.687 36.0929 109.687 33.3325C109.687 30.5721 107.485 28.3374 104.764 28.3374H98.1797V41.6577H98.2013ZM101.483 34.9975V31.6675H104.764C105.671 31.6675 106.405 32.4123 106.405 33.3325C106.405 34.2526 105.671 34.9975 104.764 34.9975H101.483Z" fill="white"/>
<path fill-rule="evenodd" clip-rule="evenodd" d="M161.479 38.327H158.219L156.816 41.6571H153.254L155.11 37.2316C153.966 36.3115 153.254 34.9093 153.254 33.31C153.254 30.5496 155.456 28.3149 158.176 28.3149H164.739V41.6352H161.458V38.3051L161.479 38.327ZM158.198 31.6669H161.479V34.997H158.198C157.291 34.997 156.557 34.2521 156.557 33.3319C156.557 32.4118 157.291 31.6669 158.198 31.6669Z" fill="white"/>
<path fill-rule="evenodd" clip-rule="evenodd" d="M141.207 41.6577H137.645L143.258 28.3374H146.821L152.434 41.6577H148.871L148.159 39.9926H141.898L141.186 41.6577H141.207ZM145.05 32.5438L147.015 37.2103H143.086L145.05 32.5438Z" fill="white"/>
<path fill-rule="evenodd" clip-rule="evenodd" d="M80.1306 34.9975C80.1306 31.3169 83.0668 28.3374 86.7154 28.3374H89.997C93.624 28.3374 96.5817 31.3169 96.5817 34.9975C96.5817 38.6781 93.6456 41.6577 89.997 41.6577H86.7154C83.0884 41.6577 80.1306 38.6781 80.1306 34.9975ZM86.7154 38.3276C84.9019 38.3276 83.4338 36.8378 83.4338 34.9975C83.4338 33.1572 84.9019 31.6675 86.7154 31.6675V38.3276ZM89.997 38.3276C91.8105 38.3276 93.2786 36.8378 93.2786 34.9975C93.2786 33.1572 91.8105 31.6675 89.997 31.6675V38.3276Z" fill="white"/>
<path d="M33.0225 29.1697H36.5848L33.5623 34.9973L36.5848 40.8249H33.0225L30 34.9973L33.0225 29.1697Z" fill="white"/>
<path d="M38.2261 29.1694H41.7883L44.8108 34.997L41.7883 40.8247H38.2261L41.2486 34.997L38.2261 29.1694Z" fill="white"/>
<path fill-rule="evenodd" clip-rule="evenodd" d="M124.497 34.9975C124.497 38.6781 121.561 41.6577 117.912 41.6577C114.264 41.6577 111.328 38.6781 111.328 34.9975C111.328 31.3169 114.264 28.3374 117.912 28.3374C121.561 28.3374 124.497 31.3169 124.497 34.9975ZM121.216 34.9975C121.216 36.8378 119.747 38.3276 117.934 38.3276C116.12 38.3276 114.652 36.8378 114.652 34.9975C114.652 33.1572 116.12 31.6675 117.934 31.6675C119.747 31.6675 121.216 33.1572 121.216 34.9975Z" fill="white"/>
<path d="M47.5305 56.665H49.1713V46.6748H60.6785V59.9951H57.3969V50.0049H52.4745V56.665C52.4745 58.5053 51.0064 59.9951 49.1929 59.9951H47.5521V56.665H47.5305Z" fill="white"/>
<path fill-rule="evenodd" clip-rule="evenodd" d="M77.6688 46.6528H87.5352V49.4352H80.9504V51.6479H84.232C86.4989 51.6479 88.334 53.5101 88.334 55.8105C88.334 58.1109 86.4989 59.9731 84.232 59.9731H77.6472V46.6528H77.6688ZM80.9504 57.2126V54.4303H83.6922C84.4479 54.4303 85.0524 55.0437 85.0524 55.8105C85.0524 56.5773 84.4479 57.1907 83.6922 57.1907H80.9504V57.2126Z" fill="white"/>
<path fill-rule="evenodd" clip-rule="evenodd" d="M108.067 59.9951H104.786V46.6748H111.37C114.091 46.6748 116.293 48.9095 116.293 51.6699C116.293 54.4303 114.091 56.665 111.37 56.665H108.089V59.9951H108.067ZM111.349 53.3349H108.067V50.0049H111.349C112.256 50.0049 112.99 50.7498 112.99 51.6699C112.99 52.5901 112.256 53.3349 111.349 53.3349Z" fill="white"/>
<path fill-rule="evenodd" clip-rule="evenodd" d="M159.839 59.9951H156.557V46.6748H163.142C165.862 46.6748 168.064 48.9095 168.064 51.6699C168.064 54.4303 165.862 56.665 163.142 56.665H159.86V59.9951H159.839ZM163.12 53.3349H159.839V50.0049H163.12C164.027 50.0049 164.761 50.7498 164.761 51.6699C164.761 52.5901 164.027 53.3349 163.12 53.3349Z" fill="white"/>
<path fill-rule="evenodd" clip-rule="evenodd" d="M192.718 56.6649H189.458L188.055 59.995H184.493L186.35 55.5695C185.205 54.6494 184.493 53.2472 184.493 51.6479C184.493 48.8875 186.695 46.6528 189.415 46.6528H196V59.9731H192.718V56.643V56.6649ZM189.437 50.0048H192.718V53.3349H189.437C188.53 53.3349 187.796 52.59 187.796 51.6698C187.796 50.7497 188.53 50.0048 189.437 50.0048Z" fill="white"/>
<path fill-rule="evenodd" clip-rule="evenodd" d="M70.9546 46.6528L76.5679 59.9731H73.0056L72.2932 58.3081H66.0323L65.3198 59.9731H61.7576L67.3708 46.6528H70.9331H70.9546ZM69.1843 50.8811L67.2197 55.5476H71.149L69.1843 50.8811Z" fill="white"/>
<path fill-rule="evenodd" clip-rule="evenodd" d="M130.261 59.9951H126.699L125.987 58.33H119.726L119.013 59.9951H115.451L121.064 46.6748H124.626L130.24 59.9951H130.261ZM124.821 55.5477L122.856 50.8812L120.891 55.5477H124.821Z" fill="white"/>
<path d="M179.292 46.6528L172.988 55.4162V46.6528H169.706V59.9731H173.268L179.572 51.2098V59.9731H182.854V46.6528H179.292Z" fill="white"/>
<path d="M129.441 46.6528H140.949V49.9829H136.847V59.9731H133.565V49.9829H129.463V46.6528H129.441Z" fill="white"/>
<path fill-rule="evenodd" clip-rule="evenodd" d="M103.146 53.313C103.146 56.9936 100.209 59.9731 96.5608 59.9731C92.9122 59.9731 89.9761 56.9936 89.9761 53.313C89.9761 49.6324 92.9122 46.6528 96.5608 46.6528C100.209 46.6528 103.146 49.6324 103.146 53.313ZM99.864 53.313C99.864 55.1533 98.3959 56.643 96.5824 56.643C94.7689 56.643 93.3008 55.1533 93.3008 53.313C93.3008 51.4727 94.7689 49.9829 96.5824 49.9829C98.3959 49.9829 99.864 51.4727 99.864 53.313Z" fill="white"/>
<path fill-rule="evenodd" clip-rule="evenodd" d="M154.916 53.313C154.916 56.9936 151.98 59.9731 148.332 59.9731C144.683 59.9731 141.747 56.9936 141.747 53.313C141.747 49.6324 144.683 46.6528 148.332 46.6528C151.98 46.6528 154.916 49.6324 154.916 53.313ZM151.635 53.313C151.635 55.1533 150.167 56.643 148.353 56.643C146.54 56.643 145.072 55.1533 145.072 53.313C145.072 51.4727 146.54 49.9829 148.353 49.9829C150.167 49.9829 151.635 51.4727 151.635 53.313Z" fill="white"/>
<path fill-rule="evenodd" clip-rule="evenodd" d="M39.867 47.4849C38.9386 47.4849 38.0966 47.7916 37.4058 48.3174C35.7866 47.0905 33.4981 47.222 32.03 48.7117C30.4324 50.3329 30.4324 52.9839 32.03 54.6051L37.2978 59.9507C37.3626 60.0164 37.4489 60.0164 37.5137 59.9507L42.7815 54.6051C43.5156 53.8602 43.9905 52.8086 43.9905 51.6693C43.9905 49.369 42.1554 47.5068 39.8885 47.5068L39.867 47.4849ZM41.2271 51.6474C41.2271 52.0418 41.076 52.3704 40.8169 52.6333L37.3842 56.1167L33.9515 52.6333C33.4117 52.0856 33.4117 51.2093 33.9515 50.6616C34.448 50.1577 35.2036 50.1139 35.7434 50.5301L37.3842 51.7789L39.025 50.5301C39.2624 50.3549 39.5431 50.2453 39.8454 50.2453C40.601 50.2453 41.2055 50.8587 41.2055 51.6255L41.2271 51.6474Z" fill="white"/>
</svg>
