<svg width="1144" height="778" viewBox="0 0 1144 778" fill="none" xmlns="http://www.w3.org/2000/svg">
<path d="M38.0645 767.636L49.2083 697.373H66.6795L65.4518 730.332L74.4235 697.373H92.2726L81.1287 767.636H68.0017L74.1402 729.01L62.3353 767.636H56.7634L57.0467 729.01L50.9082 767.636H38.0645Z" fill="white"/>
<path d="M38.0647 767.636L49.2085 697.373H66.6798L65.4521 730.333L1144 396.5V0.5L81.129 767.636H68.0019L74.1405 729.01L62.3356 767.636H56.7637L57.047 729.01L50.9084 767.636H38.0647Z" fill="#EA5614"/>
<path d="M21.2488 751.015V736.943H36.6424V751.487C36.6424 756.398 35.2888 760.521 32.5815 763.858C29.9372 767.132 25.7504 768.769 20.0211 768.769H17.2824C5.76079 768.769 0 762.568 0 750.165V714.467C0 708.989 1.35363 704.613 4.06089 701.34C6.8311 698.066 11.2068 696.429 17.1879 696.429H20.0211C31.102 696.429 36.6424 701.906 36.6424 712.861V724.383H21.2488V713.522C21.2488 711.193 20.3989 710.028 18.699 710.028C17.7546 710.028 17.0935 710.28 16.7157 710.783C16.338 711.287 16.1491 712.2 16.1491 713.522V751.015C16.1491 753.47 17.0305 754.698 18.7934 754.698C20.4304 754.698 21.2488 753.47 21.2488 751.015Z" fill="white"/>
<path d="M93.8128 697.373H122.995V711.917H109.206V723.911H120.256V738.832H109.206V752.809H123.561V767.636H93.8128V697.373Z" fill="white"/>
<path d="M131.85 747.898C132.291 738.517 132.512 721.675 132.512 697.373H166.51V767.636H150.927V711.917H146.677C146.677 730.805 146.426 744.372 145.922 752.62C145.544 758.223 144.253 762.127 142.05 764.331C139.909 766.534 136.132 767.636 130.717 767.636H127.79V752.62H128.545C129.804 752.62 130.654 752.274 131.095 751.581C131.536 750.826 131.787 749.598 131.85 747.898Z" fill="white"/>
<path d="M210.39 716.261V749.598C210.39 755.642 208.847 760.333 205.762 763.669C202.677 767.006 198.428 768.675 193.013 768.675H189.991C184.325 768.675 179.98 767.038 176.958 763.764C173.936 760.427 172.425 755.705 172.425 749.598V716.261C172.425 703.039 178.249 696.429 189.897 696.429H192.919C204.566 696.429 210.39 703.039 210.39 716.261ZM194.241 750.637V714.655C194.241 712.011 193.296 710.689 191.408 710.689C189.519 710.689 188.574 712.011 188.574 714.655V750.637C188.574 752.966 189.55 754.131 191.502 754.131C193.328 754.131 194.241 752.966 194.241 750.637Z" fill="white"/>
<path d="M236.994 751.015V736.943H252.388V751.487C252.388 756.398 251.034 760.521 248.327 763.858C245.683 767.132 241.496 768.769 235.767 768.769H233.028C221.506 768.769 215.746 762.568 215.746 750.165V714.467C215.746 708.989 217.099 704.613 219.807 701.34C222.577 698.066 226.952 696.429 232.934 696.429H235.767C246.848 696.429 252.388 701.906 252.388 712.861V724.383H236.994V713.522C236.994 711.193 236.145 710.028 234.445 710.028C233.5 710.028 232.839 710.28 232.461 710.783C232.084 711.287 231.895 712.2 231.895 713.522V751.015C231.895 753.47 232.776 754.698 234.539 754.698C236.176 754.698 236.994 753.47 236.994 751.015Z" fill="white"/>
<path d="M256.837 697.373H289.891V711.917H281.108V767.636H265.62V711.917H256.837V697.373Z" fill="white"/>
<path d="M310.22 722.305H317.68C321.71 722.305 324.826 723.564 327.03 726.083C329.296 728.601 330.43 732.19 330.43 736.849V753.47C330.43 758.255 329.359 761.812 327.219 764.142C325.141 766.471 321.804 767.636 317.208 767.636H294.732V697.373H310.22V722.305ZM310.22 755.359H312.108C313.179 755.359 313.903 755.075 314.28 754.509C314.658 753.942 314.847 753.061 314.847 751.865V738.643C314.847 737.447 314.658 736.597 314.28 736.093C313.903 735.527 313.179 735.243 312.108 735.243H310.22V755.359Z" fill="white"/>
<path d="M488.964 714.467V750.165C488.964 762.568 483.204 768.769 471.682 768.769H468.849C463.182 768.769 458.996 767.132 456.288 763.858C453.644 760.521 452.322 756.398 452.322 751.487V740.721H467.621V751.015C467.621 753.47 468.471 754.698 470.171 754.698C471.871 754.698 472.721 753.47 472.721 751.015V738.265H463.088V723.627H472.721V713.522C472.721 712.2 472.532 711.287 472.154 710.783C471.839 710.28 471.21 710.028 470.265 710.028C469.258 710.028 468.565 710.311 468.188 710.878C467.81 711.445 467.621 712.326 467.621 713.522V721.172H452.322V712.861C452.322 701.906 457.862 696.429 468.943 696.429H471.776C477.695 696.429 482.039 698.097 484.809 701.434C487.579 704.708 488.964 709.052 488.964 714.467Z" fill="white"/>
<path d="M493.512 697.373H526.566V711.917H517.783V767.636H502.295V711.917H493.512V697.373Z" fill="white"/>
<path d="M568.91 716.261V749.598C568.91 755.642 567.368 760.333 564.283 763.669C561.198 767.006 556.948 768.675 551.533 768.675H548.511C542.845 768.675 538.501 767.038 535.479 763.764C532.457 760.427 530.946 755.705 530.946 749.598V716.261C530.946 703.039 536.769 696.429 548.417 696.429H551.439C563.086 696.429 568.91 703.039 568.91 716.261ZM552.761 750.637V714.655C552.761 712.011 551.817 710.689 549.928 710.689C548.039 710.689 547.095 712.011 547.095 714.655V750.637C547.095 752.966 548.07 754.131 550.022 754.131C551.848 754.131 552.761 752.966 552.761 750.637Z" fill="white"/>
<path d="M587.617 767.636V697.373H611.227C615.382 697.373 618.467 698.412 620.482 700.49C622.56 702.567 623.599 705.936 623.599 710.595V718.339C623.599 721.298 622.874 723.69 621.426 725.516C620.041 727.342 618.593 728.507 617.082 729.01C622.308 730.647 624.921 734.645 624.921 741.004V751.392C624.921 762.221 620.671 767.636 612.171 767.636H587.617ZM605.75 736.66H603.2V755.17H606.033C606.977 755.17 607.638 754.918 608.016 754.414C608.457 753.848 608.677 752.84 608.677 751.392V740.249C608.677 738.926 608.457 738.013 608.016 737.51C607.638 736.943 606.883 736.66 605.75 736.66ZM605.466 709.367H603.2V724.477H605.372C607.261 724.477 608.205 723.312 608.205 720.983V712.672C608.205 711.539 608.016 710.721 607.638 710.217C607.261 709.65 606.536 709.367 605.466 709.367Z" fill="white"/>
<path d="M664.047 767.636V739.304H658.664V767.636H643.081V697.373H658.664V722.872H664.047V697.373H679.629V767.636H664.047Z" fill="white"/>
<path d="M706.726 767.636L705.592 757.342H698.415L697.376 767.636H683.871L692.843 697.373H712.014L721.836 767.636H706.726ZM702.004 722.116L699.832 743.459H704.176L702.004 722.116Z" fill="white"/>
<path d="M725.479 767.636V697.373H741.062V752.809H745.123V697.373H760.705V752.809H764.766V697.373H780.443V767.636H725.479Z" fill="white"/>
<path d="M786.511 697.373H815.693V711.917H801.905V723.911H812.954V738.832H801.905V752.809H816.26V767.636H786.511V697.373Z" fill="white"/>
<path d="M821.255 767.636V697.373H839.859L843.731 730.238L847.792 697.373H865.358V767.636H851.947V729.294L845.998 767.636H840.426L834.476 729.294V767.636H821.255Z" fill="white"/>
<path d="M911.763 777.552V767.636H896.086V777.552H882.77V752.809H885.131C885.698 751.802 886.138 748.654 886.453 743.365C886.705 738.076 886.957 722.746 887.209 697.373H921.49V752.809H925.079V777.552H911.763ZM900.336 742.609C900.021 747.08 899.549 750.637 898.919 753.281H906.474V711.917H900.997C900.619 731.308 900.399 741.539 900.336 742.609Z" fill="white"/>
<path d="M962.809 697.373L950.721 759.892C949.714 765.055 947.133 767.636 942.977 767.636H930.417V754.792H934.855C935.548 754.792 935.989 754.666 936.178 754.414C936.429 754.1 936.618 753.533 936.744 752.714L936.839 751.487C936.839 750.291 936.681 749.063 936.366 747.804L926.167 697.373H941.561L944.96 725.422L947.982 697.373H962.809Z" fill="white"/>
<path d="M973.382 730.049L965.827 697.373H981.598L984.904 717.961L988.115 697.373H1002.94L995.764 730.049L1004.36 767.636H988.681L984.526 743.932L980.182 767.636H964.977L973.382 730.049Z" fill="white"/>
<path d="M1008.25 697.373H1037.43V711.917H1023.65V723.911H1034.69V738.832H1023.65V752.809H1038V767.636H1008.25V697.373Z" fill="white"/>
</svg>
