<svg width="150" height="41" viewBox="0 0 150 41" fill="none" xmlns="http://www.w3.org/2000/svg">
<path d="M0 40.1733C3.03545 35.7349 6.27326 30.994 11.3323 29.0775C16.2903 27.0601 23.373 29.3801 24.1824 34.7262C39.8656 19.293 59.1913 7.59199 80.1359 0.631911C82.4631 -0.0741842 85.3973 -0.578533 86.8139 1.33801C87.9269 2.85107 87.3198 4.86848 86.8139 6.68416C83.6773 15.4599 79.4276 23.9331 74.3685 31.801C81.2489 26.4548 94.9084 19.1921 98.551 23.3278C102.194 27.4635 98.551 26.8583 97.3368 28.1696C110.794 21.8148 125.465 18.0826 140.339 17.3765C142.261 17.3765 144.285 17.2756 146.005 18.1834C149.142 19.7974 150.154 23.8322 149.344 27.2618C148.535 30.6914 142.666 36.0376 140.44 38.6602L0 40.1733Z" fill="#EDF0FB"/>
</svg>
